# xmcd
#
# Track frame offsets: 
#        150
#        8997
#        23304
#        43490
#        55947
#        68097
#        80180
#        99356
#        129824
#        151050
#        164844
#
# Disc length: 2429 seconds
#
# Revision: 0
# Processed by: cddbd v1.5.2PL0 Copyright (c) Steve Scherf et al.
# Submitted via: ExactAudioCopy v0.99pb4
#
DISCID=85097b0b
DTITLE=Eleftheria Arvanitaki - Live at the Gyalino Mousiko Theatro
DYEAR=2002
DGENRE=
TTITLE0=1. My beautiful love
TTITLE1=2. End (Everything begins here)
TTITLE2=3. Remember me
TTITLE3=4. I'll close my eyes
TTITLE4=5. Drop by drop
TTITLE5=6. I want to stay by you
TTITLE6=7. The complaint
TTITLE7=8. Parapono \\ I xenitia (Complaint \\ Exile)
TTITLE8=9. You left early
TTITLE9=10. Tell me one word
TTITLE10=11. The zero
EXTD=
EXTT0=
EXTT1=
EXTT2=
EXTT3=
EXTT4=
EXTT5=
EXTT6=
EXTT7=
EXTT8=
EXTT9=
EXTT10=
PLAYORDER=
